<?xml version="1.0" encoding="UTF-8" standalone="no"?>
<svg
   xmlns:dc="http://purl.org/dc/elements/1.1/"
   xmlns:cc="http://creativecommons.org/ns#"
   xmlns:rdf="http://www.w3.org/1999/02/22-rdf-syntax-ns#"
   xmlns:svg="http://www.w3.org/2000/svg"
   xmlns="http://www.w3.org/2000/svg"
   xmlns:xlink="http://www.w3.org/1999/xlink"
   version="1.1"
   id="svg17235"
   viewBox="0 0 1816 272"
   height="272"
   width="1816">
  <defs
     id="defs17237">
    <linearGradient
       id="linearGradient24374">
      <stop
         id="stop24376"
         offset="0"
         style="stop-color:#feb916;stop-opacity:1" />
      <stop
         id="stop24378"
         offset="1"
         style="stop-color:#fe3916;stop-opacity:1" />
    </linearGradient>
    <filter
       id="filter17010"
       style="color-interpolation-filters:sRGB"
       height="1.1"
       width="1.1"
       y="-0.050000001"
       x="-0.050000001">
      <feGaussianBlur
         id="feGaussianBlur17012"
         result="result1"
         stdDeviation="5" />
      <feComposite
         id="feComposite17014"
         operator="xor"
         result="result4"
         in2="result1"
         in="result1" />
      <feGaussianBlur
         id="feGaussianBlur17016"
         result="result6"
         stdDeviation="8" />
      <feComposite
         id="feComposite17018"
         result="result8"
         in2="SourceGraphic"
         in="result6"
         operator="atop" />
      <feComposite
         id="feComposite17020"
         in2="result8"
         in="result6"
         result="fbSourceGraphic"
         operator="in" />
      <feColorMatrix
         id="feColorMatrix17022"
         values="0 0 0 -1 0 0 0 0 -1 0 0 0 0 -1 0 0 0 0 2 0 "
         in="fbSourceGraphic"
         result="fbSourceGraphicAlpha" />
      <feGaussianBlur
         id="feGaussianBlur17024"
         stdDeviation="2"
         in="fbSourceGraphicAlpha"
         result="result0" />
      <feSpecularLighting
         id="feSpecularLighting17026"
         in="result0"
         result="result1"
         lighting-color="#ffffff"
         surfaceScale="-5"
         specularConstant="2"
         specularExponent="25">
        <fePointLight
           id="fePointLight17028"
           x="-5000"
           y="-10000"
           z="20000" />
      </feSpecularLighting>
      <feComposite
         id="feComposite17030"
         in2="fbSourceGraphicAlpha"
         in="result1"
         result="result2"
         operator="in" />
      <feComposite
         id="feComposite17032"
         in2="result2"
         in="fbSourceGraphic"
         result="result4"
         operator="arithmetic"
         k2="1"
         k3="2"
         k1="0"
         k4="0" />
      <feComposite
         id="feComposite17034"
         in2="result4"
         result="result9"
         in="result4"
         operator="in" />
      <feBlend
         id="feBlend17036"
         in2="result4"
         in="result9"
         mode="multiply" />
    </filter>
    <filter
       id="filter17038"
       style="color-interpolation-filters:sRGB">
      <feGaussianBlur
         id="feGaussianBlur17040"
         result="result0"
         in="SourceGraphic"
         stdDeviation="0.5" />
      <feTurbulence
         id="feTurbulence17042"
         type="turbulence"
         baseFrequency="0.095"
         seed="488"
         numOctaves="1"
         result="result1" />
      <feComposite
         id="feComposite17044"
         result="result2"
         operator="in"
         in2="result1"
         in="result0" />
      <feComposite
         id="feComposite17046"
         result="result91"
         k1="3"
         k3="1"
         in2="result2"
         operator="arithmetic"
         k2="0"
         k4="0" />
      <feBlend
         id="feBlend17048"
         in2="result91"
         result="fbSourceGraphic"
         mode="multiply" />
      <feColorMatrix
         id="feColorMatrix17050"
         values="0 0 0 0 0 0 0 1 0 0 0 0 1 0 0 0 0 0 5 0"
         in="fbSourceGraphic"
         result="fbSourceGraphicAlpha" />
      <feGaussianBlur
         id="feGaussianBlur17052"
         stdDeviation="3"
         in="fbSourceGraphicAlpha"
         result="result0" />
      <feOffset
         id="feOffset17054"
         dx="2"
         dy="2"
         in="result0"
         result="result3" />
      <feSpecularLighting
         id="feSpecularLighting17056"
         in="result0"
         result="result1"
         lighting-color="#6fecfd"
         surfaceScale="2"
         specularConstant="1.10000002"
         specularExponent="30">
        <fePointLight
           id="fePointLight17058"
           x="-5000"
           y="-10000"
           z="20000" />
      </feSpecularLighting>
      <feComposite
         id="feComposite17060"
         in2="fbSourceGraphicAlpha"
         in="result1"
         result="result2"
         operator="in" />
      <feComposite
         id="feComposite17062"
         in2="result2"
         in="fbSourceGraphic"
         result="result4"
         operator="arithmetic"
         k2="3"
         k3="1"
         k1="0"
         k4="0" />
      <feBlend
         id="feBlend17064"
         in2="result4"
         mode="multiply" />
    </filter>
    <filter
       id="filter16982"
       style="color-interpolation-filters:sRGB"
       height="1.1"
       width="1.1"
       y="-0.050000001"
       x="-0.050000001">
      <feGaussianBlur
         id="feGaussianBlur16984"
         result="result1"
         stdDeviation="5" />
      <feComposite
         id="feComposite16986"
         operator="xor"
         result="result4"
         in2="result1"
         in="result1" />
      <feGaussianBlur
         id="feGaussianBlur16988"
         result="result6"
         stdDeviation="8" />
      <feComposite
         id="feComposite16990"
         result="result8"
         in2="SourceGraphic"
         in="result6"
         operator="atop" />
      <feComposite
         id="feComposite16992"
         in2="result8"
         in="result6"
         result="fbSourceGraphic"
         operator="in" />
      <feColorMatrix
         id="feColorMatrix16994"
         values="0 0 0 -1 0 0 0 0 -1 0 0 0 0 -1 0 0 0 0 2 0 "
         in="fbSourceGraphic"
         result="fbSourceGraphicAlpha" />
      <feGaussianBlur
         id="feGaussianBlur16996"
         stdDeviation="2"
         in="fbSourceGraphicAlpha"
         result="result0" />
      <feSpecularLighting
         id="feSpecularLighting16998"
         in="result0"
         result="result1"
         lighting-color="#ffffff"
         surfaceScale="-5"
         specularConstant="2"
         specularExponent="25">
        <fePointLight
           id="fePointLight17000"
           x="-5000"
           y="-10000"
           z="20000" />
      </feSpecularLighting>
      <feComposite
         id="feComposite17002"
         in2="fbSourceGraphicAlpha"
         in="result1"
         result="result2"
         operator="in" />
      <feComposite
         id="feComposite17004"
         in2="result2"
         in="fbSourceGraphic"
         result="result4"
         operator="arithmetic"
         k2="1"
         k3="2"
         k1="0"
         k4="0" />
      <feComposite
         id="feComposite17006"
         in2="result4"
         result="result9"
         in="result4"
         operator="in" />
      <feBlend
         id="feBlend17008"
         in2="result4"
         in="result9"
         mode="multiply" />
    </filter>
    <filter
       id="filter23187"
       style="color-interpolation-filters:sRGB">
      <feFlood
         id="feFlood23189"
         result="flood"
         flood-color="rgb(0,7,78)"
         flood-opacity="0.627451" />
      <feComposite
         id="feComposite23191"
         result="composite1"
         operator="in"
         in2="SourceGraphic"
         in="flood" />
      <feGaussianBlur
         id="feGaussianBlur23193"
         result="blur"
         stdDeviation="2"
         in="composite1" />
      <feOffset
         id="feOffset23195"
         result="offset"
         dy="1"
         dx="1" />
      <feComposite
         id="feComposite23197"
         result="composite2"
         operator="over"
         in2="offset"
         in="SourceGraphic" />
    </filter>
    <filter
       id="filter24362"
       style="color-interpolation-filters:sRGB">
      <feGaussianBlur
         id="feGaussianBlur24364"
         result="blur"
         stdDeviation="0.3"
         in="SourceGraphic" />
      <feDiffuseLighting
         id="feDiffuseLighting24366"
         result="diffuse"
         lighting-color="#ffffff"
         surfaceScale="10"
         diffuseConstant="1">
        <feDistantLight
           id="feDistantLight24368"
           azimuth="216"
           elevation="10" />
      </feDiffuseLighting>
      <feComposite
         k4="0"
         k3="0"
         k2="0"
         id="feComposite24370"
         result="composite1"
         k1="1"
         operator="arithmetic"
         in2="diffuse"
         in="diffuse" />
      <feComposite
         k4="0"
         k2="0"
         id="feComposite24372"
         result="fbSourceGraphic"
         k3="1"
         operator="arithmetic"
         k1="1"
         in2="SourceGraphic"
         in="composite1" />
      <feColorMatrix
         id="feColorMatrix25556"
         values="0 0 0 -1 0 0 0 0 -1 0 0 0 0 -1 0 0 0 0 1 0"
         in="fbSourceGraphic"
         result="fbSourceGraphicAlpha" />
      <feFlood
         in="fbSourceGraphic"
         result="flood"
         flood-color="rgb(0,0,0)"
         flood-opacity="0.729412"
         id="feFlood25558" />
      <feComposite
         result="composite1"
         operator="in"
         in="flood"
         in2="fbSourceGraphic"
         id="feComposite25560" />
      <feGaussianBlur
         result="blur"
         stdDeviation="2"
         in="composite1"
         id="feGaussianBlur25562" />
      <feOffset
         result="offset"
         dy="1"
         dx="1"
         id="feOffset25564" />
      <feComposite
         result="composite2"
         operator="over"
         in="fbSourceGraphic"
         in2="offset"
         id="feComposite25566" />
    </filter>
    <linearGradient
       gradientTransform="translate(0,-10)"
       gradientUnits="userSpaceOnUse"
       y2="650.82703"
       x2="249.93787"
       y1="618.36877"
       x1="249.93787"
       id="linearGradient24380"
       xlink:href="#linearGradient24374" />
    <filter
       id="filter25682"
       style="color-interpolation-filters:sRGB">
      <feFlood
         id="feFlood25684"
         result="flood"
         flood-color="rgb(0,0,0)"
         flood-opacity="0.376471" />
      <feComposite
         id="feComposite25686"
         result="composite1"
         operator="in"
         in2="SourceGraphic"
         in="flood" />
      <feGaussianBlur
         id="feGaussianBlur25688"
         result="blur"
         stdDeviation="2"
         in="composite1" />
      <feOffset
         id="feOffset25690"
         result="offset"
         dy="1"
         dx="1" />
      <feComposite
         id="feComposite25692"
         result="composite2"
         operator="over"
         in2="offset"
         in="SourceGraphic" />
    </filter>
  </defs>
  <metadata
     id="metadata17240">
    <rdf:RDF>
      <cc:Work
         rdf:about="">
        <dc:format>image/svg+xml</dc:format>
        <dc:type
           rdf:resource="http://purl.org/dc/dcmitype/StillImage" />
        <dc:title></dc:title>
      </cc:Work>
    </rdf:RDF>
  </metadata>
  <g
     transform="translate(0,-780.36219)"
     id="layer1">
    <g
       transform="matrix(3.7699914,0,0,3.7699914,-58.538006,-1368.2384)"
       id="g4241">
      <g
         id="g23220"
         style="filter:url(#filter25682)">
        <g
           id="g23211">
          <g
             transform="matrix(0.25,0,0,0.25,15.6233,554.66946)"
             id="g6039"
             style="font-style:normal;font-variant:normal;font-weight:bold;font-stretch:normal;font-size:160px;line-height:125%;font-family:Arial;-inkscape-font-specification:'Arial Bold';letter-spacing:0px;word-spacing:0px;fill:#d2d6ff;fill-opacity:1;stroke:none;stroke-width:1px;stroke-linecap:butt;stroke-linejoin:miter;stroke-opacity:1;filter:url(#filter16982)">
            <path
               id="path5413"
               style="font-style:normal;font-variant:normal;font-weight:normal;font-stretch:normal;font-size:160px;font-family:StarCraft;-inkscape-font-specification:StarCraft;text-align:center;text-anchor:middle;fill:#d2d6ff;fill-opacity:1;stroke:none;stroke-opacity:1"
               d="m 173.02578,124.13779 q 19.56572,8.50286 38.94858,24.68572 20.93714,17.46285 20.93714,29.07428 0,8.59429 -13.07429,11.79429 l -93.62285,0 0,-84.29715 28.06857,0 0,65.55429 28.06857,0 q 8.77714,0 15.26857,-1.92 10.05714,-2.83429 10.05714,-9.50857 0,-12.61714 -34.65143,-35.38286 z m 46.08,19.10857 -15.72571,-11.24571 q 7.31429,-11.61143 7.31429,-19.10857 0,-16.82286 -28.34286,-16.82286 l -84.205716,0 28.068576,-18.742857 93.62285,0 q 18.56,4.297143 18.56,23.039997 0,20.75429 -19.29143,42.88 z" />
            <path
               id="path5415"
               style="font-style:normal;font-variant:normal;font-weight:normal;font-stretch:normal;font-size:160px;font-family:StarCraft;-inkscape-font-specification:StarCraft;text-align:center;text-anchor:middle;fill:#d2d6ff;fill-opacity:1;stroke:none;stroke-opacity:1"
               d="m 249.70828,96.06922 28.06858,-18.742857 112.36571,0 -37.48571,18.742857 -102.94858,0 z m 93.62286,93.62286 -65.55428,0 0,-84.29715 28.06857,0 0,18.74286 46.81143,0 -28.06858,18.74286 -18.74285,0 0,28.06857 74.88,0 -37.39429,18.74286 z" />
            <path
               id="path5417"
               style="font-style:normal;font-variant:normal;font-weight:normal;font-stretch:normal;font-size:160px;font-family:StarCraft;-inkscape-font-specification:StarCraft;text-align:center;text-anchor:middle;fill:#d2d6ff;fill-opacity:1;stroke:none;stroke-opacity:1"
               d="m 464.8865,128.80065 0,42.14857 -18.74286,37.48571 -18.74286,-18.74285 0,-60.89143 q -22.94857,-23.13143 -45.07428,-29.53143 -10.42286,-3.017142 -20.48,-3.2 l 46.81143,-18.742857 37.48571,43.062857 37.39429,-43.062857 28.16,0 -46.81143,51.474287 z" />
            <path
               id="path5419"
               style="font-style:normal;font-variant:normal;font-weight:normal;font-stretch:normal;font-size:160px;font-family:StarCraft;-inkscape-font-specification:StarCraft;text-align:center;text-anchor:middle;fill:#d2d6ff;fill-opacity:1;stroke:none;stroke-opacity:1"
               d="m 558.289,77.326363 q 56.22857,0 56.22857,56.228567 0,56.13715 -56.22857,56.13715 -56.13714,0 -56.13714,-56.13715 0,-56.228567 56.13714,-56.228567 z m 0,18.742857 q -16.45714,0 -22.94857,11.06286 -5.12,8.68571 -5.12,26.42285 0,17.73715 5.12,26.33143 6.58285,11.06286 22.94857,11.06286 16.45714,0 23.04,-10.97143 5.12,-8.59428 5.12,-26.42286 0,-17.92 -5.12,-26.51428 -6.49143,-10.97143 -23.04,-10.97143 z" />
            <path
               id="path5421"
               style="font-style:normal;font-variant:normal;font-weight:normal;font-stretch:normal;font-size:160px;font-family:StarCraft;-inkscape-font-specification:StarCraft;text-align:center;text-anchor:middle;fill:#d2d6ff;fill-opacity:1;stroke:none;stroke-opacity:1"
               d="m 646.21436,106.21779 28.06857,0 0,83.47429 -28.06857,0 0,-83.47429 z m 46.81142,27.33714 q -7.40571,-14.81142 -9.87428,-19.01714 -4.84572,-8.22857 -9.05143,-11.33714 -9.69143,-7.13143 -21.48571,-7.13143 l -34.46858,0 28.06858,-18.742857 43.06285,0 32,72.685717 q 5.30286,11.97714 6.76572,11.97714 2.46857,0 2.46857,-13.07429 l 0,-71.588567 28.06857,0 0,112.365717 -28.06857,18.74285 -37.48572,-74.88 z" />
            <path
               id="path5423"
               style="font-style:normal;font-variant:normal;font-weight:normal;font-stretch:normal;font-size:160px;font-family:StarCraft;-inkscape-font-specification:StarCraft;text-align:center;text-anchor:middle;fill:#d2d6ff;fill-opacity:1;stroke:none;stroke-opacity:1"
               d="m 827.56418,189.69208 -28.06857,0 0,-84.29715 28.06857,0 0,65.55429 q 27.24571,-13.80571 40.04571,-36.66286 5.85143,-10.42285 5.85143,-19.10857 0,-15.451427 -17.82857,-19.10857 l -84.20572,0 28.06858,-18.742857 93.62285,0 q 12.52572,2.925715 12.52572,18.742857 0,13.16571 -8.59429,30.99429 -16.18286,33.46285 -42.78857,52.38857 -14.44571,10.24 -26.69714,10.24 z" />
          </g>
        </g>
      </g>
      <g
         id="g22421"
         style="filter:url(#filter23187)">
        <g
           style="font-style:normal;font-variant:normal;font-weight:bold;font-stretch:normal;font-size:160px;line-height:125%;font-family:Arial;-inkscape-font-specification:'Arial Bold';letter-spacing:0px;word-spacing:0px;fill:#1414ff;fill-opacity:1;stroke:none;stroke-width:1px;stroke-linecap:butt;stroke-linejoin:miter;stroke-opacity:1;filter:url(#filter17010)"
           id="g6049"
           transform="matrix(0.25,0,0,0.25,15.6233,554.66946)">
          <path
             d="m 1010.2204,189.69208 -28.06854,0 0,-84.29715 28.06854,0 0,84.29715 z m 18.7429,-28.06857 q 22.1257,-14.35429 30.1714,-29.71429 3.7486,-7.13143 3.7486,-13.53143 0,-17.46286 -24.5943,-22.30857 l -84.20572,0 28.06858,-18.742857 93.62284,0 q 21.9429,5.028572 21.9429,30.537147 0,15.81714 -8.5029,31.17714 -9.0514,16.36571 -22.7657,22.58286 l 37.3943,28.06857 -46.8114,0 -28.0686,-28.06857 z"
             style="font-style:normal;font-variant:normal;font-weight:normal;font-stretch:normal;font-size:160px;font-family:StarCraft;-inkscape-font-specification:StarCraft;text-align:center;text-anchor:middle;fill:#1414ff;fill-opacity:1;stroke:none;stroke-opacity:1"
             id="path5425" />
          <path
             d="m 1108.4583,96.06922 28.0686,-18.742857 112.3657,0 -37.4857,18.742857 -102.9486,0 z m 93.6228,93.62286 -65.5542,0 0,-84.29715 28.0685,0 0,18.74286 46.8115,0 -28.0686,18.74286 -18.7429,0 0,28.06857 74.88,0 -37.3943,18.74286 z"
             style="font-style:normal;font-variant:normal;font-weight:normal;font-stretch:normal;font-size:160px;font-family:StarCraft;-inkscape-font-specification:StarCraft;text-align:center;text-anchor:middle;fill:#1414ff;fill-opacity:1;stroke:none;stroke-opacity:1"
             id="path5427" />
          <path
             d="m 1332.9622,77.326363 37.4857,112.365717 -28.16,0 q -10.24,-28.43429 -15.7257,-41.6 -12.0686,-29.16572 -20.7543,-38.67429 -7.1314,-7.86286 -17.5543,-10.605712 -4.1142,-1.097143 -20.8457,-2.742858 l 37.4857,-18.742857 28.0686,0 z m -56.1371,84.297147 -9.4172,28.06857 -28.0685,0 28.0685,-83.93143 28.0686,0 -12.3429,37.12 31.0858,0 9.4171,18.74286 -46.8114,0 z"
             style="font-style:normal;font-variant:normal;font-weight:normal;font-stretch:normal;font-size:160px;font-family:StarCraft;-inkscape-font-specification:StarCraft;text-align:center;text-anchor:middle;fill:#1414ff;fill-opacity:1;stroke:none;stroke-opacity:1"
             id="path5429" />
          <path
             d="m 1384.6519,96.06922 -28.0686,0 28.0686,-18.742857 28.0685,0 0,93.622857 74.88,0 -37.3943,18.74286 -65.5542,0 0,-93.62286 z"
             style="font-style:normal;font-variant:normal;font-weight:normal;font-stretch:normal;font-size:160px;font-family:StarCraft;-inkscape-font-specification:StarCraft;text-align:center;text-anchor:middle;fill:#1414ff;fill-opacity:1;stroke:none;stroke-opacity:1"
             id="path5431" />
          <path
             d="m 1530.2626,170.94922 -18.7429,37.48571 -18.7428,-18.74285 0,-112.365717 37.4857,0 0,93.622857 z"
             style="font-style:normal;font-variant:normal;font-weight:normal;font-stretch:normal;font-size:160px;font-family:StarCraft;-inkscape-font-specification:StarCraft;text-align:center;text-anchor:middle;fill:#1414ff;fill-opacity:1;stroke:none;stroke-opacity:1"
             id="path5433" />
          <path
             d="m 1539.0833,96.06922 28.0686,-18.742857 112.3657,0 -9.4172,18.742857 -93.6228,0 -13.0743,9.32571 -14.9943,0 -9.3257,-9.32571 z m 93.6228,74.88 -18.7428,37.48571 -18.7429,-18.74285 0,-84.29715 37.4857,0 0,65.55429 z"
             style="font-style:normal;font-variant:normal;font-weight:normal;font-stretch:normal;font-size:160px;font-family:StarCraft;-inkscape-font-specification:StarCraft;text-align:center;text-anchor:middle;fill:#1414ff;fill-opacity:1;stroke:none;stroke-opacity:1"
             id="path5435" />
          <path
             d="m 1775.0427,128.80065 0,42.14857 -18.7428,37.48571 -18.7429,-18.74285 0,-60.89143 q -22.9485,-23.13143 -45.0743,-29.53143 -10.4228,-3.017142 -20.48,-3.2 l 46.8115,-18.742857 37.4857,43.062857 37.3943,-43.062857 28.16,0 -46.8115,51.474287 z"
             style="font-style:normal;font-variant:normal;font-weight:normal;font-stretch:normal;font-size:160px;font-family:StarCraft;-inkscape-font-specification:StarCraft;text-align:center;text-anchor:middle;fill:#1414ff;fill-opacity:1;stroke:none;stroke-opacity:1"
             id="path5437" />
        </g>
      </g>
      <g
         id="text23346"
         style="font-style:normal;font-variant:normal;font-weight:bold;font-stretch:normal;font-size:40px;line-height:125%;font-family:Arial;-inkscape-font-specification:'Arial Bold';letter-spacing:0px;word-spacing:0px;fill:url(#linearGradient24380);fill-opacity:1;stroke:#000000;stroke-width:1;stroke-linecap:butt;stroke-linejoin:miter;stroke-miterlimit:4;stroke-dasharray:none;stroke-opacity:0.23529412;filter:url(#filter24362)">
        <path
           id="path4465"
           style="font-style:italic;font-variant:normal;font-weight:normal;font-stretch:normal;font-family:BatmanForeverAlternate;-inkscape-font-specification:'BatmanForeverAlternate Italic';fill:url(#linearGradient24380);fill-opacity:1;stroke:#000000;stroke-width:1;stroke-miterlimit:4;stroke-dasharray:none;stroke-opacity:0.23529412"
           d="m 144.98843,610.86516 -6.28,5.28 -15.84,0 -0.84,4.12 17.64,0 -5.76,4.8 -12.84,0 -1.88,9.4 -7.92,4.04 5.52,-27.64 28.2,0 z" />
        <path
           id="path4467"
           style="font-style:italic;font-variant:normal;font-weight:normal;font-stretch:normal;font-family:BatmanForeverAlternate;-inkscape-font-specification:'BatmanForeverAlternate Italic';fill:url(#linearGradient24380);fill-opacity:1;stroke:#000000;stroke-width:1;stroke-miterlimit:4;stroke-dasharray:none;stroke-opacity:0.23529412"
           d="m 168.63718,634.46516 -7.16,0 1.36,-6.8 -14.32,0 -1.36,6.8 -7.92,4.04 4.44,-22.28 6.44,-5.36 17.88,0 4.28,5.36 -3.64,18.24 z m -4.76,-12 1.28,-6.32 -14.32,0 -1.28,6.32 14.32,0 z" />
        <path
           id="path4469"
           style="font-style:italic;font-variant:normal;font-weight:normal;font-stretch:normal;font-family:BatmanForeverAlternate;-inkscape-font-specification:'BatmanForeverAlternate Italic';fill:url(#linearGradient24380);fill-opacity:1;stroke:#000000;stroke-width:1;stroke-miterlimit:4;stroke-dasharray:none;stroke-opacity:0.23529412"
           d="m 203.70905,634.42516 -7.12,0 1.16,-5.76 -1.72,-2.12 -13.6,0 -1.6,7.88 -7.92,4.08 5.52,-27.64 24.64,0 3.92,7.24 -5.2,5.48 3.28,4.08 -1.36,6.76 z m -4.16,-15.84 -1.36,-2.48 -13.68,0 -1.04,5.08 13.68,0 2.4,-2.6 z" />
        <path
           id="path4471"
           style="font-style:italic;font-variant:normal;font-weight:normal;font-stretch:normal;font-family:BatmanForeverAlternate;-inkscape-font-specification:'BatmanForeverAlternate Italic';fill:url(#linearGradient24380);fill-opacity:1;stroke:#000000;stroke-width:1;stroke-miterlimit:4;stroke-dasharray:none;stroke-opacity:0.23529412"
           d="m 241.93155,627.18516 -6.8,7.24 -27.36,0 6.28,-5.24 17.96,0 2.08,-2 -1.24,-2.12 -18,0 -3.8,-6.96 6.8,-7.24 27.36,0 -6.32,5.24 -17.92,0 -2.12,2 1.28,2.12 18,0 3.8,6.96 z" />
        <path
           id="path4473"
           style="font-style:italic;font-variant:normal;font-weight:normal;font-stretch:normal;font-family:BatmanForeverAlternate;-inkscape-font-specification:'BatmanForeverAlternate Italic';fill:url(#linearGradient24380);fill-opacity:1;stroke:#000000;stroke-width:1;stroke-miterlimit:4;stroke-dasharray:none;stroke-opacity:0.23529412"
           d="m 277.33218,610.86516 -6.28,5.28 -15.84,0 -2.64,13.04 20.24,0 -6.32,5.28 -16.72,0 -4.28,-5.36 2.56,-12.88 6.44,-5.36 22.84,0 z" />
        <path
           id="path4475"
           style="font-style:italic;font-variant:normal;font-weight:normal;font-stretch:normal;font-family:BatmanForeverAlternate;-inkscape-font-specification:'BatmanForeverAlternate Italic';fill:url(#linearGradient24380);fill-opacity:1;stroke:#000000;stroke-width:1;stroke-miterlimit:4;stroke-dasharray:none;stroke-opacity:0.23529412"
           d="m 302.7778,634.46516 -7.16,0 1.36,-6.8 -14.32,0 -1.36,6.8 -7.92,4.04 4.44,-22.28 6.44,-5.36 17.88,0 4.28,5.36 -3.64,18.24 z m -4.76,-12 1.28,-6.32 -14.32,0 -1.28,6.32 14.32,0 z" />
        <path
           id="path4477"
           style="font-style:italic;font-variant:normal;font-weight:normal;font-stretch:normal;font-family:BatmanForeverAlternate;-inkscape-font-specification:'BatmanForeverAlternate Italic';fill:url(#linearGradient24380);fill-opacity:1;stroke:#000000;stroke-width:1;stroke-miterlimit:4;stroke-dasharray:none;stroke-opacity:0.23529412"
           d="m 341.12968,618.10516 -7.92,8.44 -16.64,0 -1.6,7.88 -7.92,4.08 5.52,-27.64 24.64,0 3.92,7.24 z m -7.44,0.48 -1.36,-2.48 -13.68,0 -1.04,5.08 13.68,0 2.4,-2.6 z" />
        <path
           id="path4479"
           style="font-style:italic;font-variant:normal;font-weight:normal;font-stretch:normal;font-family:BatmanForeverAlternate;-inkscape-font-specification:'BatmanForeverAlternate Italic';fill:url(#linearGradient24380);fill-opacity:1;stroke:#000000;stroke-width:1;stroke-miterlimit:4;stroke-dasharray:none;stroke-opacity:0.23529412"
           d="m 374.05093,610.86516 -6.28,5.28 -15.84,0 -0.84,4.12 17.64,0 -5.76,4.8 -12.84,0 -0.84,4.12 20.24,0 -6.32,5.28 -22.08,0 4.72,-23.6 28.2,0 z" />
        <path
           id="path4481"
           style="font-style:italic;font-variant:normal;font-weight:normal;font-stretch:normal;font-family:BatmanForeverAlternate;-inkscape-font-specification:'BatmanForeverAlternate Italic';fill:url(#linearGradient24380);fill-opacity:1;stroke:#000000;stroke-width:1;stroke-miterlimit:4;stroke-dasharray:none;stroke-opacity:0.23529412"
           d="m 402.20499,627.18516 -6.8,7.24 -27.36,0 6.28,-5.24 17.96,0 2.08,-2 -1.24,-2.12 -18,0 -3.8,-6.96 6.8,-7.24 27.36,0 -6.32,5.24 -17.92,0 -2.12,2 1.28,2.12 18,0 3.8,6.96 z" />
      </g>
    </g>
  </g>
</svg>
